<svg id="icon--call" viewBox="0 0 24 24" xmlns="http://www.w3.org/2000/svg">
<path d="M3.89489 2.58107C4.96482 1.98434 6.32917 1.84452 7.63338 2.1741C8.26857 2.33389 8.81105 2.74461 9.13679 3.31014L10.2618 5.26513C10.6628 5.9621 10.7786 6.78631 10.5852 7.56622C10.3917 8.34614 9.90391 9.02168 9.22324 9.45225L8.23349 10.0789C7.82381 10.3374 7.67347 10.7331 7.76743 11.0464C8.10319 12.1675 8.84613 13.4109 9.66298 14.2623C9.90603 14.517 10.352 14.5769 10.788 14.3235L11.3355 14.0051C11.6948 13.7965 12.0921 13.6612 12.5044 13.6072C12.9166 13.5532 13.3356 13.5815 13.7367 13.6905C14.1379 13.7995 14.5133 13.987 14.841 14.2421C15.1686 14.4971 15.4421 14.8147 15.6453 15.1761L16.6538 16.9676C16.9833 17.5543 17.0372 18.2547 16.8042 18.8851C16.3394 20.1373 15.4436 21.1472 14.3424 21.6528C13.2236 22.1659 11.9143 22.1447 10.7292 21.357C8.85239 20.1111 6.59101 18.0138 4.54261 14.5157C2.46791 10.9703 1.94547 7.95292 2.00435 5.70331C2.04194 4.26391 2.80617 3.1878 3.89489 2.58107ZM15.411 2.10668C15.2658 2.02623 15.0945 2.00654 14.9347 2.05196C14.775 2.09738 14.6398 2.20418 14.5591 2.34887C14.4783 2.49356 14.4586 2.66429 14.5042 2.82349C14.5498 2.98269 14.6569 3.11733 14.8021 3.19778L15.2832 3.46494C16.7862 4.29688 18.0646 5.47904 19.0093 6.9104C19.954 8.34175 20.5368 9.97974 20.708 11.6844L20.7481 12.0776C20.7529 12.1618 20.7747 12.2441 20.8122 12.3197C20.8497 12.3952 20.9022 12.4624 20.9665 12.5172C21.0308 12.572 21.1056 12.6132 21.1864 12.6384C21.2671 12.6636 21.3521 12.6722 21.4363 12.6638C21.5205 12.6554 21.602 12.63 21.6761 12.5893C21.7502 12.5486 21.8152 12.4933 21.8673 12.4269C21.9194 12.3605 21.9574 12.2842 21.9791 12.2027C22.0008 12.1212 22.0057 12.0362 21.9935 11.9528L21.9546 11.5608C21.7635 9.65523 21.1121 7.82413 20.0561 6.22404C19.0001 4.62396 17.571 3.30248 15.8909 2.37259L15.411 2.10668ZM13.9427 5.45239C14.0283 5.31053 14.1669 5.20836 14.3281 5.16832C14.4892 5.12829 14.6598 5.15368 14.8021 5.23891L14.9575 5.33129C15.9688 5.93546 16.8364 6.75125 17.5002 7.72227C18.1641 8.6933 18.6084 9.7964 18.8025 10.9553L18.8576 11.2886C18.8738 11.3706 18.8734 11.455 18.8563 11.5368C18.8392 11.6186 18.8058 11.6961 18.7581 11.7648C18.7104 11.8335 18.6493 11.892 18.5785 11.9367C18.5076 11.9815 18.4285 12.0116 18.3458 12.0253C18.2631 12.039 18.1785 12.036 18.0969 12.0165C18.0154 11.9971 17.9386 11.9615 17.8711 11.9118C17.8037 11.8622 17.7469 11.7996 17.7041 11.7278C17.6614 11.6559 17.6336 11.5762 17.6223 11.4934L17.5659 11.1613C17.4021 10.1806 17.0266 9.24711 16.4653 8.42525C15.904 7.60338 15.1702 6.91277 14.3148 6.40117L14.1594 6.30879C14.0888 6.26666 14.0273 6.2111 13.9782 6.14526C13.9292 6.07942 13.8937 6.0046 13.8736 5.92507C13.8536 5.84554 13.8495 5.76286 13.8616 5.68176C13.8737 5.60065 13.9016 5.52271 13.9439 5.45239H13.9427Z" />
</svg>
