<svg id="icon--quote" viewBox="0 0 34 34" xmlns="http://www.w3.org/2000/svg">
<path d="M25.2589 16.2846C28.222 16.2846 30.222 18.3471 30.222 21.4028C30.222 24.1528 27.9257 26.4444 24.8147 26.4444C21.4071 26.4444 18.8887 23.6944 18.8887 19.4931C18.8887 9.94441 25.8517 6.12496 30.222 5.66663V9.86801C27.2591 10.4027 23.9258 13.382 23.7775 16.6666C23.9258 16.5903 24.5183 16.2846 25.2589 16.2846Z"/>
<path d="M10.1477 16.2846C13.1107 16.2846 15.1107 18.3471 15.1107 21.4028C15.1107 24.1528 12.8144 26.4444 9.70326 26.4444C6.29586 26.4444 3.77734 23.6944 3.77734 19.4931C3.77734 9.94441 10.7403 6.12496 15.1107 5.66663V9.86801C12.1477 10.4027 8.81439 13.382 8.66624 16.6666C8.81439 16.5903 9.40697 16.2846 10.1477 16.2846Z"/>
</svg>
