<svg id="icon--menu" viewBox="0 0 32 32" xmlns="http://www.w3.org/2000/svg">
<path fill-rule="evenodd" clip-rule="evenodd" d="M4.2998 7.96646C4.2998 7.41418 4.74752 6.96646 5.2998 6.96646H26.6331C27.1854 6.96646 27.6331 7.41418 27.6331 7.96646C27.6331 8.51875 27.1854 8.96646 26.6331 8.96646H5.2998C4.74752 8.96646 4.2998 8.51875 4.2998 7.96646Z"/>
<path fill-rule="evenodd" clip-rule="evenodd" d="M4.2998 15.9665C4.2998 15.4142 4.74752 14.9665 5.2998 14.9665H26.6331C27.1854 14.9665 27.6331 15.4142 27.6331 15.9665C27.6331 16.5187 27.1854 16.9665 26.6331 16.9665H5.2998C4.74752 16.9665 4.2998 16.5187 4.2998 15.9665Z"/>
<path fill-rule="evenodd" clip-rule="evenodd" d="M4.2998 23.9665C4.2998 23.4142 4.74752 22.9665 5.2998 22.9665H26.6331C27.1854 22.9665 27.6331 23.4142 27.6331 23.9665C27.6331 24.5187 27.1854 24.9665 26.6331 24.9665H5.2998C4.74752 24.9665 4.2998 24.5187 4.2998 23.9665Z"/>
</svg>
