<svg id="icon--danger" viewBox="0 0 16 16"  xmlns="http://www.w3.org/2000/svg">
<path fill-rule="evenodd" clip-rule="evenodd" d="M7.01898 1.52206C7.31851 1.35342 7.65644 1.26483 8.00018 1.26483C8.34391 1.26483 8.68185 1.35342 8.98137 1.52206C9.2809 1.69069 9.53191 1.93368 9.71018 2.22758L9.7121 2.23074L15.3588 11.6574L15.3642 11.6666C15.5388 11.969 15.6312 12.3119 15.6322 12.6611C15.6332 13.0104 15.5427 13.3538 15.3697 13.6571C15.1968 13.9605 14.9474 14.2134 14.6465 14.3905C14.3455 14.5676 14.0034 14.6628 13.6542 14.6666L13.6468 14.6667L2.34618 14.6667C1.99698 14.6628 1.65487 14.5676 1.35389 14.3905C1.05291 14.2134 0.803545 13.9605 0.630609 13.6571C0.457674 13.3538 0.367194 13.0104 0.368172 12.6611C0.36915 12.3119 0.461551 11.969 0.636183 11.6666L0.641598 11.6574L6.28826 2.23075L6.86016 2.57332L6.29018 2.22758C6.46845 1.93368 6.71945 1.69069 7.01898 1.52206ZM7.43098 2.91775L1.78863 12.3372C1.73185 12.4371 1.70182 12.5499 1.7015 12.6649C1.70117 12.7813 1.73133 12.8957 1.78898 12.9969C1.84662 13.098 1.92975 13.1823 2.03007 13.2413C2.12952 13.2998 2.24244 13.3315 2.35777 13.3333H13.6426C13.7579 13.3315 13.8708 13.2998 13.9703 13.2413C14.0706 13.1823 14.1537 13.098 14.2114 12.9969C14.269 12.8957 14.2992 12.7813 14.2989 12.6649C14.2985 12.55 14.2685 12.4371 14.2117 12.3372L8.57018 2.91908C8.56991 2.91864 8.56964 2.91819 8.56937 2.91775C8.51 2.82038 8.42663 2.73987 8.32724 2.68391C8.2274 2.6277 8.11475 2.59816 8.00018 2.59816C7.8856 2.59816 7.77295 2.6277 7.67311 2.68391C7.57372 2.73987 7.49036 2.82038 7.43098 2.91775Z" />
<path fill-rule="evenodd" clip-rule="evenodd" d="M7.3335 11.3333C7.3335 10.9651 7.63197 10.6667 8.00016 10.6667H8.00683C8.37502 10.6667 8.6735 10.9651 8.6735 11.3333C8.6735 11.7015 8.37502 12 8.00683 12H8.00016C7.63197 12 7.3335 11.7015 7.3335 11.3333Z" />
<path fill-rule="evenodd" clip-rule="evenodd" d="M8.00016 5.33334C8.36835 5.33334 8.66683 5.63182 8.66683 6.00001V8.66668C8.66683 9.03487 8.36835 9.33334 8.00016 9.33334C7.63197 9.33334 7.3335 9.03487 7.3335 8.66668V6.00001C7.3335 5.63182 7.63197 5.33334 8.00016 5.33334Z" />
</svg>
