<svg id="icon--change" viewBox="0 0 24 24" xmlns="http://www.w3.org/2000/svg">
<path d="M14.3186 14.272C14.3186 14.5937 14.0331 14.8546 13.681 14.8546L4.88049 14.8546C4.52832 14.8546 4.24284 14.5937 4.24284 14.272C4.24284 13.9502 4.52832 13.6893 4.88048 13.6893L13.681 13.6893C14.0331 13.6893 14.3186 13.9502 14.3186 14.272Z" />
<path d="M6.11262 16.8276C5.88076 17.0575 5.50484 17.0575 5.27298 16.8276L3.17389 14.7468C2.94204 14.517 2.94204 14.1443 3.17389 13.9145C3.40575 13.6847 3.78167 13.6847 4.01353 13.9145L6.11262 15.9953C6.34448 16.2251 6.34448 16.5978 6.11262 16.8276Z" />
<path d="M6.11304 11.8339C6.3449 12.0637 6.3449 12.4364 6.11304 12.6662L4.01395 14.747C3.78209 14.9769 3.40575 14.9767 3.17389 14.7468C2.94204 14.517 2.94204 14.1443 3.17389 13.9145L5.27341 11.8339C5.50526 11.6041 5.88118 11.6041 6.11304 11.8339Z" />
<path d="M9.68138 9.72804C9.68138 9.40627 9.96687 9.14542 10.319 9.14542L19.1195 9.14542C19.4717 9.14542 19.7572 9.40626 19.7572 9.72804C19.7572 10.0498 19.4717 10.3107 19.1195 10.3107L10.319 10.3107C9.96687 10.3107 9.68139 10.0498 9.68138 9.72804Z" />
<path d="M17.8874 7.17238C18.1192 6.94254 18.4952 6.94254 18.727 7.17238L20.8261 9.25318C21.058 9.48301 21.058 9.85566 20.8261 10.0855C20.5942 10.3153 20.2183 10.3153 19.9865 10.0855L17.8874 8.0047C17.6555 7.77486 17.6555 7.40222 17.8874 7.17238Z" />
<path d="M17.887 12.1664C17.6551 11.9365 17.6551 11.5639 17.887 11.3341L19.986 9.25326C20.2179 9.02342 20.5942 9.02334 20.8261 9.25318C21.058 9.48301 21.058 9.85566 20.8261 10.0855L18.7266 12.1664C18.4947 12.3962 18.1188 12.3962 17.887 12.1664Z" />
</svg>
