<svg id="icon--sending" viewBox="0 0 32 32" xmlns="http://www.w3.org/2000/svg">
<path fill-rule="evenodd" clip-rule="evenodd" d="M7.70711 22.2929C8.09763 22.6834 8.09763 23.3166 7.70711 23.7071C7.31658 24.0976 6.68342 24.0976 6.29289 23.7071L1.29289 18.7071C1.10536 18.5196 1 18.2652 1 18C1 17.7348 1.10536 17.4804 1.29289 17.2929L6.29289 12.2929C6.68342 11.9024 7.31658 11.9024 7.70711 12.2929C8.09763 12.6834 8.09763 13.3166 7.70711 13.7071L4.41421 17H17C17.5523 17 18 17.4477 18 18C18 18.5523 17.5523 19 17 19H4.41421L7.70711 22.2929Z"/>
<path fill-rule="evenodd" clip-rule="evenodd" d="M24.2929 18.2929C23.9024 18.6834 23.9024 19.3166 24.2929 19.7071C24.6834 20.0976 25.3166 20.0976 25.7071 19.7071L30.7071 14.7071C30.8946 14.5196 31 14.2652 31 14C31 13.7348 30.8946 13.4804 30.7071 13.2929L25.7071 8.29289C25.3166 7.90237 24.6834 7.90237 24.2929 8.29289C23.9024 8.68342 23.9024 9.31658 24.2929 9.70711L27.5858 13L15 13C14.4477 13 14 13.4477 14 14C14 14.5523 14.4477 15 15 15L27.5858 15L24.2929 18.2929Z"/>
</svg>
