<svg id="icon--lock" viewBox="0 0 24 24" xmlns="http://www.w3.org/2000/svg">
<g clip-path="url(#clip0_65_18057)">
<path fill-rule="evenodd" clip-rule="evenodd" d="M3 12.3851V21.2031C3 22.0961 3.73 22.8251 4.622 22.8251H19.378C20.271 22.8251 21 22.0951 21 21.2031V12.3851C21 11.4921 20.27 10.7631 19.378 10.7631H18.237V6.92206C18.237 3.48406 15.437 0.685059 12 0.685059C10.3466 0.687439 8.76155 1.34531 7.5924 2.51446C6.42326 3.68361 5.76538 5.26863 5.763 6.92206C5.763 7.06978 5.82168 7.21146 5.92614 7.31592C6.0306 7.42037 6.17227 7.47906 6.32 7.47906C6.46773 7.47906 6.6094 7.42037 6.71386 7.31592C6.81832 7.21146 6.877 7.06978 6.877 6.92206C6.87885 5.56286 7.41961 4.25987 8.38071 3.29877C9.34181 2.33767 10.6448 1.79691 12.004 1.79506C14.831 1.79506 17.132 4.09506 17.132 6.92206V10.7631H4.622C4.19239 10.7649 3.78089 10.9364 3.47711 11.2402C3.17332 11.544 3.00184 11.9554 3 12.3851H3ZM19.89 12.3851V21.2031C19.89 21.4841 19.66 21.7151 19.378 21.7151H4.622C4.48637 21.7145 4.35645 21.6604 4.26054 21.5645C4.16464 21.4686 4.11053 21.3387 4.11 21.2031V12.3851C4.11 12.1041 4.34 11.8731 4.622 11.8731H19.378C19.659 11.8771 19.89 12.1031 19.89 12.3851Z" />
</g>
<defs>
<clipPath id="clip0_65_18057">
<rect width="24" height="24" fill="white"/>
</clipPath>
</defs>
</svg>
