<svg id="icon--mail" viewBox="0 0 24 24" xmlns="http://www.w3.org/2000/svg">
<path d="M22 8.25387V17.2C22 18.7467 20.7632 20 19.2368 20H4.76316C4.03032 20 3.3275 19.705 2.80931 19.1799C2.29112 18.6548 2 17.9426 2 17.2V8.25387L11.6832 13.6512C11.8805 13.7611 12.12 13.7611 12.3168 13.6512L22 8.25333V8.25387ZM19.2368 4C19.9581 4.00007 20.6508 4.28595 21.1669 4.79657C21.683 5.3072 21.9816 6.00209 21.9989 6.7328L12 12.3061L2.00105 6.73227L2.00211 6.68427C2.03158 5.96227 2.33537 5.27978 2.84995 4.77951C3.36453 4.27924 4.05005 3.99993 4.76316 4H19.2368Z"/>
</svg>
