<svg id="icon--safety" viewBox="0 0 48 48" fill="none" xmlns="http://www.w3.org/2000/svg">
<rect width="48" height="48" rx="6" fill="#2D58B6"/>
<path d="M34.2666 20.2809C34.0389 17.9637 32.9581 15.8138 31.2341 14.2488C29.51 12.6839 27.2659 11.8155 24.9375 11.8125H23.0625C20.7341 11.8155 18.49 12.6839 16.7659 14.2488C15.0419 15.8138 13.9611 17.9637 13.7334 20.2809C12.7042 20.3554 11.7412 20.8161 11.0372 21.5706C10.3333 22.3251 9.94048 23.3178 9.9375 24.3497V27.4003C9.93874 28.4872 10.3711 29.5293 11.1396 30.2979C11.9082 31.0664 12.9503 31.4988 14.0372 31.5H16.5C16.6231 31.5 16.745 31.4758 16.8588 31.4286C16.9725 31.3815 17.0759 31.3125 17.1629 31.2254C17.25 31.1384 17.319 31.035 17.3661 30.9213C17.4133 30.8075 17.4375 30.6856 17.4375 30.5625V21.1875C17.4375 20.9389 17.3387 20.7004 17.1629 20.5246C16.9871 20.3488 16.7486 20.25 16.5 20.25H15.6272C15.8569 18.4392 16.7385 16.7742 18.107 15.5663C19.4755 14.3584 21.2372 13.6905 23.0625 13.6875H24.9375C26.7628 13.6905 28.5245 14.3584 29.893 15.5663C31.2615 16.7742 32.1431 18.4392 32.3728 20.25H31.5C31.2514 20.25 31.0129 20.3488 30.8371 20.5246C30.6613 20.7004 30.5625 20.9389 30.5625 21.1875V30.5625C30.5625 30.8111 30.6613 31.0496 30.8371 31.2254C31.0129 31.4012 31.2514 31.5 31.5 31.5H32.3044C32.0971 32.3026 31.6298 33.014 30.9754 33.5228C30.321 34.0317 29.5165 34.3094 28.6875 34.3125H26.8125V33.375C26.8125 33.1264 26.7137 32.8879 26.5379 32.7121C26.3621 32.5363 26.1236 32.4375 25.875 32.4375C25.6264 32.4375 25.3879 32.5363 25.2121 32.7121C25.0363 32.8879 24.9375 33.1264 24.9375 33.375V35.25C24.9375 35.4986 25.0363 35.7371 25.2121 35.9129C25.3879 36.0887 25.6264 36.1875 25.875 36.1875H28.6875C30.0204 36.186 31.3095 35.7111 32.3249 34.8477C33.3404 33.9842 34.0162 32.7882 34.2319 31.4728C35.2678 31.4062 36.2397 30.9486 36.9509 30.1925C37.662 29.4364 38.0594 28.4383 38.0625 27.4003V24.3497C38.0595 23.3178 37.6667 22.3251 36.9628 21.5706C36.2588 20.8161 35.2958 20.3554 34.2666 20.2809ZM15.5625 29.625H14.0372C13.4473 29.6245 12.8817 29.39 12.4646 28.9729C12.0475 28.5558 11.813 27.9902 11.8125 27.4003V24.3497C11.813 23.7598 12.0475 23.1942 12.4646 22.7771C12.8817 22.36 13.4473 22.1255 14.0372 22.125H15.5625V29.625ZM36.1875 27.4003C36.187 27.9902 35.9525 28.5558 35.5354 28.9729C35.1183 29.39 34.5527 29.6245 33.9628 29.625H32.4375V22.125H33.9628C34.5527 22.1255 35.1183 22.36 35.5354 22.7771C35.9525 23.1942 36.187 23.7598 36.1875 24.3497V27.4003Z" fill="white"/>
</svg>
