<svg id="icon--delete" viewBox="0 0 32 32" xmlns="http://www.w3.org/2000/svg">
<path fill-rule="evenodd" clip-rule="evenodd" d="M4.67128 16L10.4175 9.5H27.5007V22.5H10.4175L4.67128 16ZM9.44297 8.33767C9.63279 8.12296 9.9056 8 10.1922 8H28.0007C28.553 8 29.0007 8.44772 29.0007 9V23C29.0007 23.5523 28.553 24 28.0007 24H10.1922C9.9056 24 9.63279 23.877 9.44297 23.6623L3.2547 16.6623C2.92031 16.2841 2.92031 15.7159 3.2547 15.3377L9.44297 8.33767ZM13.9801 19C13.7699 19.2079 13.7699 19.545 13.9801 19.7529L14.0723 19.8441C14.2825 20.052 14.6232 20.052 14.8334 19.8441L17.8588 16.8513L20.8843 19.8441C21.0945 20.052 21.4352 20.052 21.6454 19.8441L21.7376 19.7529C21.9478 19.545 21.9478 19.2079 21.7376 19L18.7122 16.0072L21.7522 13C21.9624 12.7921 21.9624 12.455 21.7522 12.2471L21.66 12.1559C21.4499 11.948 21.1091 11.948 20.8989 12.1559L17.8588 15.1631L14.8188 12.1559C14.6086 11.948 14.2678 11.948 14.0577 12.1559L13.9655 12.2471C13.7553 12.455 13.7553 12.7921 13.9655 13L17.0055 16.0072L13.9801 19Z" />
</svg>
