<svg id="icon--safety" viewBox="0 0 48 48" fill="none" xmlns="http://www.w3.org/2000/svg">
<rect width="48" height="48" rx="6" fill="#2D58B6"/>
<path d="M34.3861 21.5451V13.4718C34.3861 13.119 34.1062 12.8329 33.7611 12.8329C32.0381 12.8329 30.6361 11.4 30.6361 9.63892C30.6361 9.28608 30.3563 9 30.0111 9H15.3744C15.0292 9 14.7494 9.28608 14.7494 9.63892C14.7494 11.4 13.3477 12.8329 11.625 12.8329C11.2798 12.8329 11 13.119 11 13.4718V25.3044C11 31.8964 21.9704 36.9962 22.4376 37.2099C22.5188 37.247 22.6058 37.2657 22.693 37.2657C22.78 37.2657 22.8667 37.2473 22.9479 37.2102C22.9991 37.1867 24.1192 36.6711 25.6499 35.7717C27.2404 37.742 29.6466 39 32.335 39C37.1128 39 40.9998 35.0264 40.9998 30.1418C40.9998 25.981 38.1754 22.4907 34.3861 21.5451ZM22.694 35.9218C21.0698 35.1281 12.25 30.5727 12.25 25.3044V14.0652C14.1628 13.7844 15.6801 12.2333 15.9548 10.2778H29.4307C29.7056 12.2333 31.223 13.7844 33.1361 14.0652V21.3255C32.8719 21.3005 32.6054 21.284 32.335 21.284C27.5569 21.284 23.6699 25.2576 23.6699 30.1418C23.6699 31.8188 24.1364 33.3826 24.9314 34.7208C23.9163 35.3126 23.0903 35.7294 22.694 35.9218ZM32.335 37.7222C28.2463 37.7222 24.9199 34.3216 24.9199 30.1418C24.9199 25.9623 28.2463 22.5618 32.335 22.5618C36.4234 22.5618 39.7498 25.9623 39.7498 30.1418C39.7498 34.3216 36.4234 37.7222 32.335 37.7222Z" fill="white"/>
<path d="M35.9342 28.4262C35.844 27.262 34.8816 26.8408 33.6606 26.6894L33.6852 25.0795L32.7379 25.0482L32.7141 26.6158C32.465 26.6075 32.2104 26.6042 31.9574 26.601L31.9817 25.023L31.035 24.9917L31.0101 26.6012C30.805 26.5987 30.6035 26.596 30.4071 26.5896L30.4071 26.5846L29.1006 26.5408L29.0849 27.5875C29.0849 27.5875 29.7846 27.5969 29.7728 27.6098C30.1564 27.6226 30.2778 27.8572 30.3111 28.0573L30.2831 29.8914C30.3096 29.8924 30.3441 29.8947 30.3832 29.9016C30.3516 29.9006 30.3179 29.8993 30.2831 29.8984L30.2436 32.4679C30.2249 32.5922 30.1509 32.7891 29.8828 32.7807C29.8948 32.7922 29.1942 32.7577 29.1942 32.7577L28.9881 33.9218L30.2208 33.9627C30.4502 33.9706 30.6759 33.9821 30.8975 33.9908L30.873 35.6192L31.8192 35.6507L31.8438 34.0395C32.1035 34.0537 32.3549 34.0642 32.6004 34.0721L32.5755 35.6757L33.5228 35.707L33.5478 34.0816C35.1418 34.0398 36.2628 33.6617 36.4248 32.1191C36.5555 30.877 35.9976 30.3023 35.0971 30.0478C35.6508 29.7766 36.0019 29.2783 35.9345 28.4263L35.9342 28.4261L35.9342 28.4262ZM34.5557 31.864C34.5376 33.0809 32.5258 32.8758 31.8838 32.8551L31.917 30.6977C32.5592 30.7192 34.5752 30.5948 34.5558 31.864L34.5557 31.864ZM34.1616 28.8056C34.1445 29.9126 32.4669 29.7278 31.9321 29.7101L31.9621 27.7534C32.4968 27.7711 34.1792 27.6509 34.1617 28.8055L34.1616 28.8056Z" fill="white"/>
<path d="M25.788 19.405C25.5439 19.1554 25.1484 19.1554 24.9042 19.405L20.7557 23.6462L18.9106 21.76C18.6665 21.5105 18.271 21.5105 18.0269 21.76C17.7827 22.0096 17.7827 22.4139 18.0269 22.6635L20.3138 25.0015C20.431 25.1212 20.59 25.1886 20.7557 25.1886C20.9214 25.1886 21.0804 25.1212 21.1976 25.0015L25.788 20.3084C26.0322 20.0589 26.0322 19.6545 25.788 19.405Z" fill="white"/>
</svg>
