<svg id="icon--protect" viewBox="0 0 42 42" fill="none" xmlns="http://www.w3.org/2000/svg">
<path d="M39.2397 5.8782C39.1644 5.33668 38.7747 4.89125 38.248 4.74484L21.3675 0.0503574C21.1269 -0.016623 20.8727 -0.016623 20.6318 0.0503574L3.7513 4.74484C3.22461 4.89125 2.83499 5.3365 2.75959 5.8782C2.66168 6.58223 0.428089 23.2168 6.15711 31.492C11.8794 39.7573 20.3209 41.8754 20.6774 41.9616C20.7834 41.9872 20.8913 41.9998 20.9997 41.9998C21.108 41.9998 21.216 41.987 21.3219 41.9616C21.6786 41.8754 30.1202 39.7573 35.8422 31.492C41.5713 23.217 39.3377 6.58241 39.2397 5.8782ZM31.8854 15.5896L20.3712 27.1038C20.1033 27.3718 19.7519 27.5059 19.4007 27.5059C19.0496 27.5059 18.6982 27.372 18.4303 27.1038L11.3111 19.9847C11.0536 19.7274 10.9091 19.3782 10.9091 19.0142C10.9091 18.6502 11.0538 18.301 11.3111 18.0437L12.7247 16.6302C13.2607 16.0944 14.1298 16.0942 14.6656 16.6302L19.4007 21.3653L28.5309 12.2349C28.7882 11.9774 29.1374 11.8329 29.5014 11.8329C29.8654 11.8329 30.2146 11.9774 30.4719 12.2349L31.8854 13.6485C32.4215 14.1845 32.4215 15.0536 31.8854 15.5896Z" fill="#2D58B6"/>
<path d="M20.3712 27.1038L31.8854 15.5896C32.4215 15.0536 32.4215 14.1845 31.8854 13.6485L30.4719 12.2349C30.2146 11.9774 29.8654 11.8329 29.5014 11.8329C29.1374 11.8329 28.7882 11.9774 28.5309 12.2349L19.4007 21.3653L14.6656 16.6302C14.1298 16.0942 13.2607 16.0944 12.7247 16.6302L11.3111 18.0437C11.0538 18.301 10.9091 18.6502 10.9091 19.0142C10.9091 19.3782 11.0536 19.7274 11.3111 19.9847L18.4303 27.1038C18.6982 27.372 19.0496 27.5059 19.4007 27.5059C19.7519 27.5059 20.1033 27.3718 20.3712 27.1038Z" fill="#FFC825"/>
</svg>
