<svg id="icon--info" viewBox="0 0 18 18" xmlns="http://www.w3.org/2000/svg">
<g clip-path="url(#clip0_131_464)">
<path d="M9 16.5C4.85786 16.5 1.5 13.1421 1.5 9C1.5 4.85786 4.85786 1.5 9 1.5C13.1421 1.5 16.5 4.85786 16.5 9C16.4955 13.1403 13.1403 16.4955 9 16.5ZM3 9.129C3.03549 12.4299 5.73083 15.0822 9.0319 15.0645C12.333 15.0467 14.9997 12.3656 14.9997 9.0645C14.9997 5.76338 12.333 3.08233 9.0319 3.0645C5.73083 3.04684 3.03549 5.69907 3 9V9.129ZM10.5 12.75H8.25V9.75H7.5V8.25H9.75V11.25H10.5V12.75ZM9.75 6.75H8.25V5.25H9.75V6.75Z" />
</g>
<defs>
<clipPath id="clip0_131_464">
<rect width="18" height="18" fill="white"/>
</clipPath>
</defs>
</svg>
