<svg id="icon--pay" viewBox="0 0 32 32" xmlns="http://www.w3.org/2000/svg">
<path fill-rule="evenodd" clip-rule="evenodd" d="M15 4.69763V9.71422C15 10.2665 15.4477 10.7142 16 10.7142C16.5523 10.7142 17 10.2665 17 9.71422V4.70209L18.1478 5.84989C18.5383 6.24042 19.1715 6.24042 19.562 5.84989C19.9525 5.45937 19.9525 4.8262 19.562 4.43568L16.7458 1.61949C16.5627 1.41461 16.2964 1.28564 16 1.28564C15.9996 1.28564 15.9992 1.28564 15.9989 1.28565C15.7426 1.28536 15.4862 1.38299 15.2907 1.57854L12.4335 4.43568C12.043 4.8262 12.043 5.45937 12.4335 5.84989C12.824 6.24042 13.4572 6.24042 13.8477 5.84989L15 4.69763ZM10.4197 10.1501C10.8102 10.5406 10.8102 11.1738 10.4197 11.5643L9.26989 12.7141H13.7129C14.2652 12.7141 14.7129 13.1618 14.7129 13.7141V18.2855C14.7129 18.8378 14.2652 19.2855 13.7129 19.2855C13.1606 19.2855 12.7129 18.8378 12.7129 18.2855V14.7141H9.26947L10.4197 15.8644C10.8102 16.2549 10.8102 16.888 10.4197 17.2786C10.0292 17.6691 9.39603 17.6691 9.0055 17.2786L6.14836 14.4214C5.75784 14.0309 5.75784 13.3977 6.14836 13.0072L9.0055 10.1501C9.39603 9.75955 10.0292 9.75955 10.4197 10.1501ZM21.5764 10.1501C21.9669 9.75955 22.6001 9.75955 22.9906 10.1501L25.8477 13.0072C26.0353 13.1947 26.1406 13.4491 26.1406 13.7143C26.1406 13.9795 26.0353 14.2339 25.8477 14.4214L22.9906 17.2786C22.6001 17.6691 21.9669 17.6691 21.5764 17.2786C21.1859 16.888 21.1859 16.2549 21.5764 15.8644L22.7266 14.7141H19.2852V18.2855C19.2852 18.8378 18.8374 19.2855 18.2852 19.2855C17.7329 19.2855 17.2852 18.8378 17.2852 18.2855V13.7141C17.2852 13.1618 17.7329 12.7141 18.2852 12.7141H22.7262L21.5764 11.5643C21.1859 11.1738 21.1859 10.5406 21.5764 10.1501ZM4.57031 20.1428C5.1226 20.1428 5.57031 20.5905 5.57031 21.1428V23.1428C5.57031 23.6951 6.01803 24.1428 6.57031 24.1428H25.4275C25.9797 24.1428 26.4275 23.6951 26.4275 23.1428V21.1428C26.4275 20.5905 26.8752 20.1428 27.4275 20.1428C27.9797 20.1428 28.4275 20.5905 28.4275 21.1428V23.1428C28.4275 24.7996 27.0843 26.1428 25.4275 26.1428H6.57031C4.91346 26.1428 3.57031 24.7996 3.57031 23.1428V21.1428C3.57031 20.5905 4.01803 20.1428 4.57031 20.1428Z"/>
</svg>
