<svg id="icon--close" viewBox="0 0 24 25" xmlns="http://www.w3.org/2000/svg">
<path d="M4.99543 5.35076C5.38596 4.96024 6.01912 4.96024 6.40965 5.35076L19.265 18.2061C19.6555 18.5966 19.6555 19.2298 19.265 19.6203L19.0937 19.7916C18.7032 20.1821 18.07 20.1821 17.6795 19.7916L4.82414 6.93627C4.43362 6.54574 4.43362 5.91258 4.82414 5.52206L4.99543 5.35076Z" />
<path d="M4.85129 19.6203C4.46077 19.2298 4.46077 18.5966 4.85129 18.2061L17.7066 5.35075C18.0971 4.96023 18.7303 4.96023 19.1208 5.35075L19.2921 5.52205C19.6827 5.91257 19.6827 6.54574 19.2921 6.93626L6.4368 19.7916C6.04627 20.1821 5.41311 20.1821 5.02258 19.7916L4.85129 19.6203Z" />
</svg>
