<svg  viewBox="0 0 176 60" fill="none" xmlns="http://www.w3.org/2000/svg">
<path d="M151.336 20.0061C151.139 20.5482 150.757 21.5419 150.506 22.2308C150.244 22.9083 149.851 23.9585 149.633 24.5457C149.414 25.133 149.01 26.2058 148.748 26.9172C148.486 27.6286 148.191 28.3852 148.104 28.5885C148.017 28.7918 147.94 29.0176 147.94 29.0967C147.929 29.1757 147.842 29.4354 147.722 29.6839C147.602 29.9323 147.514 30.192 147.504 30.2711C147.504 30.3501 147.438 30.576 147.351 30.7793C147.034 31.5246 146.412 33.1959 146.412 33.2975C146.401 33.3653 146.314 33.6137 146.193 33.8621C146.073 34.1106 145.986 34.3703 145.975 34.4494C145.975 34.5736 145.899 34.7769 145.451 35.8384C145.364 36.0529 145.254 36.3804 145.211 36.5724C145.156 36.7531 144.916 37.4419 144.665 38.0969C144.414 38.7519 144.163 39.4633 144.097 39.6778C144.043 39.8924 143.944 40.1183 143.901 40.186C143.857 40.2425 143.759 40.4796 143.704 40.6942C143.639 40.9087 143.486 41.3717 143.355 41.7105C143.224 42.0493 142.983 42.7156 142.809 43.1898C142.645 43.6754 142.481 44.1158 142.438 44.1723C142.405 44.2401 142.416 44.3191 142.481 44.3643C142.536 44.3982 144.239 44.432 146.27 44.432H149.96L150.375 42.9866C150.615 42.1961 150.899 41.2023 151.019 40.7732L151.238 40.0166H155.594H159.939L160.103 40.3441C160.201 40.5248 160.496 41.496 160.758 42.501C161.031 43.506 161.271 44.353 161.293 44.3869C161.326 44.4095 163.084 44.432 165.202 44.432C167.986 44.432 169.056 44.3869 169.034 44.2965C169.023 44.2288 168.324 42.2864 167.495 39.9827C166.654 37.6678 165.617 34.7881 165.191 33.5798C164.754 32.3715 164.307 31.118 164.187 30.8131C164.066 30.4969 163.837 29.842 163.662 29.3451C163.488 28.8482 163.204 28.0577 163.018 27.5947C162.833 27.1318 162.68 26.7026 162.68 26.6575C162.68 26.601 162.614 26.3977 162.527 26.2058C162.243 25.5056 161.916 24.6022 161.916 24.4893C161.905 24.4215 161.817 24.1731 161.697 23.9246C161.577 23.6762 161.49 23.3939 161.479 23.2923C161.479 23.2019 161.402 23.0212 161.315 22.897C161.228 22.7841 161.151 22.6034 161.151 22.5131C161.151 22.3211 160.769 21.2596 160.54 20.7966C160.452 20.6385 160.387 20.4014 160.387 20.2884C160.387 20.1755 160.321 19.9835 160.234 19.8593C160.158 19.7351 160.059 19.4979 160.016 19.3173L159.95 19.0124H155.823H151.707L151.336 20.0061ZM156.02 25.8105C156.151 26.2622 156.718 28.2384 157.275 30.192C157.832 32.1457 158.367 34.0202 158.465 34.3364L158.629 34.9349H155.736C154.153 34.9349 152.853 34.8898 152.853 34.8446C152.853 34.7994 153.388 32.8571 154.044 30.5308C154.699 28.2045 155.31 26.0025 155.408 25.6411C155.507 25.2911 155.638 24.9974 155.692 24.9974C155.747 24.9974 155.9 25.3701 156.02 25.8105Z" fill="black"/>
<path d="M9.49878 31.8295V44.5224L12.2611 44.5563C13.7678 44.5789 15.0998 44.545 15.209 44.4998C15.4055 44.4095 15.4164 44.0029 15.3946 34.6753C15.3836 29.3226 15.3836 24.862 15.3836 24.7716C15.4164 24.4329 15.7221 25.0314 15.7221 25.4153C15.7221 25.6186 15.7985 25.9799 15.8859 26.2058C15.9732 26.4429 16.0933 26.8608 16.1479 27.1431C16.2025 27.4254 16.4536 28.4643 16.7047 29.4581C16.9559 30.4518 17.2943 31.8182 17.469 32.5071C17.6328 33.1846 17.9822 34.5397 18.2224 35.4996C18.4626 36.4595 19.074 38.8761 19.5762 40.8636L20.4933 44.4772L23.1027 44.5337C24.533 44.5676 25.7558 44.5563 25.7995 44.5224C25.8432 44.4885 26.0288 43.9013 26.2035 43.2238C26.531 41.9251 28.4745 34.2348 29.1186 31.6601C29.3261 30.8245 29.6973 29.3677 29.9266 28.4417C30.1668 27.5044 30.4179 26.4655 30.4834 26.1268C30.5489 25.788 30.6908 25.3024 30.8 25.054C30.9965 24.6135 30.9965 24.862 31.0075 34.5623C31.0075 40.0505 31.0402 44.5337 31.0948 44.5337C31.1385 44.5337 32.4705 44.545 34.0645 44.545L36.9578 44.5563L36.9906 31.8408L37.0124 19.1253H32.1648H27.3062L27.1425 19.7125C27.0114 20.2094 25.5812 25.7767 24.5003 30.0792C23.8015 32.8007 23.3429 34.551 23.2665 34.6865C23.201 34.7995 23.1464 34.7543 23.07 34.5172C23.0045 34.3478 22.131 30.8922 21.1375 26.8608C20.133 22.818 19.2923 19.4302 19.2596 19.3173C19.205 19.1366 18.8774 19.1253 14.3464 19.1253H9.49878V31.8295Z" fill="black"/>
<path d="M48.5966 20.1189C48.4 20.661 48.0179 21.6547 47.7668 22.3436C47.5048 23.0211 47.1117 24.0713 46.8933 24.6585C46.675 25.2458 46.271 26.3186 46.009 27.03C45.7469 27.7414 45.4522 28.498 45.3648 28.7013C45.2775 28.9046 45.201 29.1304 45.201 29.2095C45.1901 29.2885 45.1028 29.5482 44.9827 29.7967C44.8626 30.0451 44.7752 30.3048 44.7643 30.3839C44.7643 30.4629 44.6988 30.6888 44.6115 30.8921C44.2948 31.6374 43.6725 33.3087 43.6725 33.4103C43.6616 33.4781 43.5742 33.7265 43.4541 33.9749C43.334 34.2234 43.2467 34.4831 43.2358 34.5622C43.2358 34.6864 43.1593 34.8896 42.7117 35.9512C42.6244 36.1657 42.5152 36.4932 42.4715 36.6852C42.4169 36.8659 42.1767 37.5547 41.9256 38.2097C41.6745 38.8646 41.4234 39.5761 41.3579 39.7906C41.3033 40.0052 41.205 40.2311 41.1613 40.2988C41.1177 40.3553 41.0194 40.5924 40.9648 40.807C40.8993 41.0215 40.7464 41.4845 40.6154 41.8233C40.4844 42.1621 40.2442 42.8284 40.0695 43.3026C39.9057 43.7882 39.742 44.2286 39.6983 44.2851C39.6656 44.3529 39.6765 44.4319 39.742 44.4771C39.7966 44.511 41.4998 44.5448 43.5306 44.5448H47.2209L47.6358 43.0994C47.876 42.3089 48.1598 41.3151 48.2799 40.886L48.4983 40.1294H52.8546H57.2001L57.3638 40.4569C57.5385 40.7844 57.8115 41.7556 58.2154 43.3478C58.3355 43.8447 58.4666 44.319 58.5102 44.398C58.6194 44.6013 66.3494 44.6126 66.2948 44.4093C66.2839 44.3416 65.5852 42.3992 64.7554 40.0955C63.9147 37.7806 62.8775 34.9009 62.4517 33.6926C62.0149 32.4843 61.5673 31.2308 61.4472 30.9259C61.3271 30.6097 61.0978 29.9548 60.9231 29.4579C60.7484 28.961 60.4646 28.1705 60.279 27.7075C60.0934 27.2446 59.9405 26.8154 59.9405 26.7703C59.9405 26.7138 59.875 26.5105 59.7876 26.3186C59.5038 25.6184 59.1762 24.715 59.1762 24.6021C59.1653 24.5343 59.078 24.2859 58.9579 24.0374C58.8378 23.789 58.7504 23.5067 58.7395 23.4051C58.7395 23.3147 58.6631 23.134 58.5757 23.0098C58.4884 22.8969 58.412 22.7162 58.412 22.6259C58.412 22.4339 58.0298 21.3724 57.8006 20.9094C57.7132 20.7513 57.6477 20.5142 57.6477 20.4012C57.6477 20.2883 57.5822 20.0963 57.4948 19.9721C57.4184 19.8479 57.3202 19.6107 57.2765 19.4301L57.211 19.1252H53.0839H48.9678L48.5966 20.1189ZM53.2804 25.9233C53.4115 26.375 53.9792 28.3512 54.536 30.3048C55.0929 32.2585 55.6278 34.133 55.7261 34.4492L55.8899 35.0477H52.9966C51.4134 35.0477 50.1142 35.0026 50.1142 34.9574C50.1142 34.9122 50.6492 32.9699 51.3043 30.6436C51.9594 28.3173 52.5708 26.1153 52.669 25.7539C52.7673 25.4039 52.8983 25.1102 52.9529 25.1102C53.0075 25.1102 53.1603 25.4829 53.2804 25.9233Z" fill="black"/>
<path d="M67.0592 22.0835L67.0919 25.0534L70.9242 25.0873L74.7674 25.1099L74.8329 25.3696C74.8656 25.5051 74.8984 29.8754 74.8984 35.0813V44.5332L78.5669 44.5106L82.2244 44.4767V35.0474C82.2135 29.1865 82.2572 25.5503 82.3227 25.4487C82.4101 25.3019 83.0105 25.268 86.2751 25.2228L90.1292 25.1664L90.1619 22.1399L90.1837 19.1248H78.6105H67.0374L67.0592 22.0835Z" fill="black"/>
<path d="M94.5728 19.2606C94.3872 19.4526 94.3872 44.4319 94.5728 44.6238C94.7475 44.8045 105.349 44.8158 107.063 44.6351C112.26 44.0931 114.968 41.4845 114.968 37.0239C114.968 34.517 114.083 32.552 112.479 31.5018L112.009 31.1969L112.511 30.6097C113.865 29.0062 114.455 26.6234 114.062 24.3536C113.516 21.2707 111.387 19.6785 107.227 19.2381C105.578 19.0687 94.7475 19.08 94.5728 19.2606ZM106.353 24.8844C107.675 25.1441 108.122 25.6297 108.177 26.8493C108.22 27.6736 108.22 27.6849 107.816 28.1366C107.129 28.9384 106.768 29.0062 103.285 29.0062H100.283L100.25 26.8832L100.228 24.7714H102.991C104.519 24.7714 106.026 24.8279 106.353 24.8844ZM107.271 34.6525C108.024 34.8557 108.373 35.0816 108.723 35.6236C108.952 35.9624 108.974 36.1205 108.941 36.8545C108.897 37.8596 108.668 38.2887 107.947 38.6501C107.172 39.0453 106.441 39.1131 103.275 39.1131H100.228V36.7981V34.4831H103.427C105.939 34.4831 106.768 34.517 107.271 34.6525Z" fill="black"/>
<path d="M119.826 19.2608C119.794 19.3399 119.783 25.0991 119.794 32.0554L119.826 44.7031L129.314 44.737C136.236 44.7483 138.835 44.7257 138.944 44.6353C139.064 44.5337 139.097 43.9578 139.097 41.9251C139.097 39.4972 139.086 39.3391 138.889 39.2262C138.747 39.1584 136.411 39.1133 132.066 39.1133H125.449V36.7983V34.4833L131.596 34.4607L137.732 34.4268V31.7731V29.1193L131.596 29.0854L125.449 29.0628V26.9172V24.7716L132.033 24.749L138.606 24.7152V21.9485V19.1818L129.238 19.1479C121.803 19.1253 119.859 19.1479 119.826 19.2608Z" fill="black"/>
</svg>
